<svg width="66" height="48" viewBox="0 0 66 48" fill="none" xmlns="http://www.w3.org/2000/svg">
<circle cx="24" cy="24" r="24" fill="#844955"/>
<rect x="24" width="42" height="48" fill="#844955"/>
<path d="M16.9162 29.118V18.894L17.6002 20.586L14.4142 22.062L13.7842 18.948L17.4022 17.22H20.3722V29.118H16.9162ZM14.0002 30V26.922H22.9822V30H14.0002ZM32.2047 30.18C30.8127 30.18 29.6427 29.916 28.6947 29.388C27.7587 28.848 27.0507 28.098 26.5707 27.138C26.0907 26.166 25.8507 25.02 25.8507 23.7C25.8507 22.368 26.0907 21.222 26.5707 20.262C27.0507 19.302 27.7587 18.558 28.6947 18.03C29.6427 17.49 30.8127 17.22 32.2047 17.22C33.5847 17.22 34.7367 17.49 35.6607 18.03C36.5967 18.558 37.2987 19.302 37.7667 20.262C38.2347 21.222 38.4687 22.368 38.4687 23.7C38.4687 25.02 38.2347 26.166 37.7667 27.138C37.2987 28.098 36.5967 28.848 35.6607 29.388C34.7367 29.916 33.5847 30.18 32.2047 30.18ZM32.2047 27.21C33.1167 27.21 33.8247 26.91 34.3287 26.31C34.8327 25.698 35.0847 24.828 35.0847 23.7C35.0847 22.524 34.8327 21.618 34.3287 20.982C33.8247 20.346 33.1167 20.028 32.2047 20.028C31.2687 20.028 30.5367 20.346 30.0087 20.982C29.4807 21.618 29.2167 22.524 29.2167 23.7C29.2167 24.828 29.4807 25.698 30.0087 26.31C30.5367 26.91 31.2687 27.21 32.2047 27.21ZM44.7998 30L53.3498 17.4H56.4458L47.7878 30H44.7998ZM44.7458 24.762C44.0258 24.762 43.3838 24.594 42.8198 24.258C42.2678 23.91 41.8358 23.436 41.5238 22.836C41.2118 22.236 41.0558 21.582 41.0558 20.874C41.0558 20.13 41.2058 19.464 41.5058 18.876C41.8058 18.276 42.2318 17.808 42.7838 17.472C43.3478 17.124 44.0018 16.95 44.7458 16.95C45.4898 16.95 46.1378 17.124 46.6898 17.472C47.2538 17.808 47.6798 18.276 47.9678 18.876C48.2678 19.464 48.4178 20.13 48.4178 20.874C48.4178 21.594 48.2618 22.254 47.9498 22.854C47.6378 23.442 47.2058 23.91 46.6538 24.258C46.1018 24.594 45.4658 24.762 44.7458 24.762ZM44.7458 22.53C44.9618 22.53 45.1358 22.458 45.2678 22.314C45.4118 22.158 45.5138 21.96 45.5738 21.72C45.6338 21.468 45.6638 21.186 45.6638 20.874C45.6638 20.55 45.6278 20.262 45.5558 20.01C45.4958 19.758 45.3998 19.56 45.2678 19.416C45.1358 19.272 44.9618 19.2 44.7458 19.2C44.5418 19.2 44.3678 19.278 44.2238 19.434C44.0918 19.578 43.9898 19.776 43.9178 20.028C43.8458 20.28 43.8098 20.562 43.8098 20.874C43.8098 21.186 43.8458 21.474 43.9178 21.738C43.9898 21.99 44.0978 22.188 44.2418 22.332C44.3858 22.464 44.5538 22.53 44.7458 22.53ZM56.9138 30.252C56.1938 30.252 55.5578 30.078 55.0058 29.73C54.4538 29.382 54.0158 28.914 53.6918 28.326C53.3798 27.738 53.2238 27.084 53.2238 26.364C53.2238 25.62 53.3738 24.954 53.6738 24.366C53.9738 23.766 54.3998 23.298 54.9518 22.962C55.5158 22.614 56.1758 22.44 56.9318 22.44C57.6758 22.44 58.3178 22.614 58.8578 22.962C59.4098 23.298 59.8358 23.766 60.1358 24.366C60.4478 24.954 60.6038 25.62 60.6038 26.364C60.6038 27.084 60.4418 27.738 60.1178 28.326C59.7938 28.914 59.3558 29.382 58.8038 29.73C58.2518 30.078 57.6218 30.252 56.9138 30.252ZM56.9318 28.002C57.1358 28.002 57.3038 27.93 57.4358 27.786C57.5678 27.63 57.6638 27.432 57.7238 27.192C57.7838 26.952 57.8138 26.676 57.8138 26.364C57.8138 26.028 57.7838 25.74 57.7238 25.5C57.6758 25.248 57.5798 25.05 57.4358 24.906C57.3038 24.762 57.1298 24.69 56.9138 24.69C56.7098 24.69 56.5358 24.768 56.3918 24.924C56.2478 25.068 56.1398 25.266 56.0678 25.518C56.0078 25.77 55.9778 26.052 55.9778 26.364C55.9778 26.688 56.0078 26.976 56.0678 27.228C56.1398 27.468 56.2478 27.66 56.3918 27.804C56.5478 27.936 56.7278 28.002 56.9318 28.002Z" fill="#F2F2F2"/>
</svg>
