<svg width="65" height="48" viewBox="0 0 65 48" fill="none" xmlns="http://www.w3.org/2000/svg">
<circle cx="24" cy="24" r="24" fill="#844955"/>
<rect x="24" width="41" height="48" fill="#844955"/>
<path d="M16.9358 29.118V18.894L17.6198 20.586L14.4338 22.062L13.8038 18.948L17.4218 17.22H20.3918V29.118H16.9358ZM14.0198 30V26.922H23.0018V30H14.0198ZM31.1442 30.126C30.0762 30.126 29.0862 29.934 28.1742 29.55C27.2742 29.166 26.5122 28.662 25.8882 28.038L27.7602 25.824C28.2162 26.244 28.7202 26.58 29.2722 26.832C29.8362 27.084 30.4062 27.21 30.9822 27.21C31.4382 27.21 31.8282 27.144 32.1522 27.012C32.4882 26.868 32.7402 26.676 32.9082 26.436C33.0882 26.184 33.1782 25.89 33.1782 25.554C33.1782 25.218 33.0882 24.93 32.9082 24.69C32.7282 24.438 32.4702 24.246 32.1342 24.114C31.7982 23.97 31.4022 23.898 30.9462 23.898C30.4662 23.898 30.0342 23.946 29.6502 24.042C29.2662 24.138 28.9362 24.252 28.6602 24.384C28.3842 24.504 28.1682 24.624 28.0122 24.744L26.5722 22.908L27.3822 17.256H35.2842V20.172H28.9302L29.9382 18.858L29.3442 22.854L27.9582 22.548C28.2582 22.332 28.6062 22.134 29.0022 21.954C29.3982 21.774 29.8242 21.63 30.2802 21.522C30.7362 21.414 31.2042 21.36 31.6842 21.36C32.5482 21.36 33.3342 21.54 34.0422 21.9C34.7622 22.26 35.3382 22.77 35.7702 23.43C36.2022 24.078 36.4182 24.84 36.4182 25.716C36.4182 26.544 36.1842 27.294 35.7162 27.966C35.2482 28.626 34.6122 29.154 33.8082 29.55C33.0162 29.934 32.1282 30.126 31.1442 30.126ZM42.7802 30L51.3302 17.4H54.4262L45.7682 30H42.7802ZM42.7262 24.762C42.0062 24.762 41.3642 24.594 40.8002 24.258C40.2482 23.91 39.8162 23.436 39.5042 22.836C39.1922 22.236 39.0362 21.582 39.0362 20.874C39.0362 20.13 39.1862 19.464 39.4862 18.876C39.7862 18.276 40.2122 17.808 40.7642 17.472C41.3282 17.124 41.9822 16.95 42.7262 16.95C43.4702 16.95 44.1182 17.124 44.6702 17.472C45.2342 17.808 45.6602 18.276 45.9482 18.876C46.2482 19.464 46.3982 20.13 46.3982 20.874C46.3982 21.594 46.2422 22.254 45.9302 22.854C45.6182 23.442 45.1862 23.91 44.6342 24.258C44.0822 24.594 43.4462 24.762 42.7262 24.762ZM42.7262 22.53C42.9422 22.53 43.1162 22.458 43.2482 22.314C43.3922 22.158 43.4942 21.96 43.5542 21.72C43.6142 21.468 43.6442 21.186 43.6442 20.874C43.6442 20.55 43.6082 20.262 43.5362 20.01C43.4762 19.758 43.3802 19.56 43.2482 19.416C43.1162 19.272 42.9422 19.2 42.7262 19.2C42.5222 19.2 42.3482 19.278 42.2042 19.434C42.0722 19.578 41.9702 19.776 41.8982 20.028C41.8262 20.28 41.7902 20.562 41.7902 20.874C41.7902 21.186 41.8262 21.474 41.8982 21.738C41.9702 21.99 42.0782 22.188 42.2222 22.332C42.3662 22.464 42.5342 22.53 42.7262 22.53ZM54.8942 30.252C54.1742 30.252 53.5382 30.078 52.9862 29.73C52.4342 29.382 51.9962 28.914 51.6722 28.326C51.3602 27.738 51.2042 27.084 51.2042 26.364C51.2042 25.62 51.3542 24.954 51.6542 24.366C51.9542 23.766 52.3802 23.298 52.9322 22.962C53.4962 22.614 54.1562 22.44 54.9122 22.44C55.6562 22.44 56.2982 22.614 56.8382 22.962C57.3902 23.298 57.8162 23.766 58.1162 24.366C58.4282 24.954 58.5842 25.62 58.5842 26.364C58.5842 27.084 58.4222 27.738 58.0982 28.326C57.7742 28.914 57.3362 29.382 56.7842 29.73C56.2322 30.078 55.6022 30.252 54.8942 30.252ZM54.9122 28.002C55.1162 28.002 55.2842 27.93 55.4162 27.786C55.5482 27.63 55.6442 27.432 55.7042 27.192C55.7642 26.952 55.7942 26.676 55.7942 26.364C55.7942 26.028 55.7642 25.74 55.7042 25.5C55.6562 25.248 55.5602 25.05 55.4162 24.906C55.2842 24.762 55.1102 24.69 54.8942 24.69C54.6902 24.69 54.5162 24.768 54.3722 24.924C54.2282 25.068 54.1202 25.266 54.0482 25.518C53.9882 25.77 53.9582 26.052 53.9582 26.364C53.9582 26.688 53.9882 26.976 54.0482 27.228C54.1202 27.468 54.2282 27.66 54.3722 27.804C54.5282 27.936 54.7082 28.002 54.9122 28.002Z" fill="#F2F2F2"/>
</svg>
