<svg width="57" height="48" viewBox="0 0 57 48" fill="none" xmlns="http://www.w3.org/2000/svg">
<circle cx="24" cy="24" r="24" fill="#844955"/>
<rect x="24" width="33" height="48" fill="#844955"/>
<path d="M19.404 30.126C18.336 30.126 17.346 29.934 16.434 29.55C15.534 29.166 14.772 28.662 14.148 28.038L16.02 25.824C16.476 26.244 16.98 26.58 17.532 26.832C18.096 27.084 18.666 27.21 19.242 27.21C19.698 27.21 20.088 27.144 20.412 27.012C20.748 26.868 21 26.676 21.168 26.436C21.348 26.184 21.438 25.89 21.438 25.554C21.438 25.218 21.348 24.93 21.168 24.69C20.988 24.438 20.73 24.246 20.394 24.114C20.058 23.97 19.662 23.898 19.206 23.898C18.726 23.898 18.294 23.946 17.91 24.042C17.526 24.138 17.196 24.252 16.92 24.384C16.644 24.504 16.428 24.624 16.272 24.744L14.832 22.908L15.642 17.256H23.544V20.172H17.19L18.198 18.858L17.604 22.854L16.218 22.548C16.518 22.332 16.866 22.134 17.262 21.954C17.658 21.774 18.084 21.63 18.54 21.522C18.996 21.414 19.464 21.36 19.944 21.36C20.808 21.36 21.594 21.54 22.302 21.9C23.022 22.26 23.598 22.77 24.03 23.43C24.462 24.078 24.678 24.84 24.678 25.716C24.678 26.544 24.444 27.294 23.976 27.966C23.508 28.626 22.872 29.154 22.068 29.55C21.276 29.934 20.388 30.126 19.404 30.126ZM31.04 30L39.59 17.4H42.686L34.028 30H31.04ZM30.986 24.762C30.266 24.762 29.624 24.594 29.06 24.258C28.508 23.91 28.076 23.436 27.764 22.836C27.452 22.236 27.296 21.582 27.296 20.874C27.296 20.13 27.446 19.464 27.746 18.876C28.046 18.276 28.472 17.808 29.024 17.472C29.588 17.124 30.242 16.95 30.986 16.95C31.73 16.95 32.378 17.124 32.93 17.472C33.494 17.808 33.92 18.276 34.208 18.876C34.508 19.464 34.658 20.13 34.658 20.874C34.658 21.594 34.502 22.254 34.19 22.854C33.878 23.442 33.446 23.91 32.894 24.258C32.342 24.594 31.706 24.762 30.986 24.762ZM30.986 22.53C31.202 22.53 31.376 22.458 31.508 22.314C31.652 22.158 31.754 21.96 31.814 21.72C31.874 21.468 31.904 21.186 31.904 20.874C31.904 20.55 31.868 20.262 31.796 20.01C31.736 19.758 31.64 19.56 31.508 19.416C31.376 19.272 31.202 19.2 30.986 19.2C30.782 19.2 30.608 19.278 30.464 19.434C30.332 19.578 30.23 19.776 30.158 20.028C30.086 20.28 30.05 20.562 30.05 20.874C30.05 21.186 30.086 21.474 30.158 21.738C30.23 21.99 30.338 22.188 30.482 22.332C30.626 22.464 30.794 22.53 30.986 22.53ZM43.154 30.252C42.434 30.252 41.798 30.078 41.246 29.73C40.694 29.382 40.256 28.914 39.932 28.326C39.62 27.738 39.464 27.084 39.464 26.364C39.464 25.62 39.614 24.954 39.914 24.366C40.214 23.766 40.64 23.298 41.192 22.962C41.756 22.614 42.416 22.44 43.172 22.44C43.916 22.44 44.558 22.614 45.098 22.962C45.65 23.298 46.076 23.766 46.376 24.366C46.688 24.954 46.844 25.62 46.844 26.364C46.844 27.084 46.682 27.738 46.358 28.326C46.034 28.914 45.596 29.382 45.044 29.73C44.492 30.078 43.862 30.252 43.154 30.252ZM43.172 28.002C43.376 28.002 43.544 27.93 43.676 27.786C43.808 27.63 43.904 27.432 43.964 27.192C44.024 26.952 44.054 26.676 44.054 26.364C44.054 26.028 44.024 25.74 43.964 25.5C43.916 25.248 43.82 25.05 43.676 24.906C43.544 24.762 43.37 24.69 43.154 24.69C42.95 24.69 42.776 24.768 42.632 24.924C42.488 25.068 42.38 25.266 42.308 25.518C42.248 25.77 42.218 26.052 42.218 26.364C42.218 26.688 42.248 26.976 42.308 27.228C42.38 27.468 42.488 27.66 42.632 27.804C42.788 27.936 42.968 28.002 43.172 28.002Z" fill="#F2F2F2"/>
</svg>
